<?xml version="1.0" encoding="UTF-8" standalone="no"?>
<svg width="1447px" height="1271px" viewBox="0 0 1447 1271" version="1.1" xmlns="http://www.w3.org/2000/svg" xmlns:xlink="http://www.w3.org/1999/xlink">
    <!-- Generator: Sketch 3.8.3 (29802) - http://www.bohemiancoding.com/sketch -->
    <title>Slice 1</title>
    <desc>Created with Sketch.</desc>
    <defs>
        <linearGradient x1="100%" y1="80.4645116%" x2="0%" y2="21.0140628%" id="linearGradient-1">
            <stop stop-color="#409FFF" offset="0%"></stop>
            <stop stop-color="#2157CF" offset="100%"></stop>
        </linearGradient>
        <linearGradient x1="100%" y1="80.4645116%" x2="0%" y2="21.0140628%" id="linearGradient-2">
            <stop stop-color="#001CFF" stop-opacity="0" offset="0%"></stop>
            <stop stop-color="#5AEAFF" stop-opacity="0.201341712" offset="100%"></stop>
        </linearGradient>
        <radialGradient cx="33.2232386%" cy="23.353294%" fx="33.2232386%" fy="23.353294%" r="100%" id="radialGradient-3">
            <stop stop-color="#FFFFFF" offset="0%"></stop>
            <stop stop-color="#FFFFFF" offset="100%"></stop>
        </radialGradient>
    </defs>
    <g id="Page-1" stroke="none" stroke-width="1" fill="none" fill-rule="evenodd">
        <g id="ads_partial_logo_dark_background" transform="translate(-263.000000, -76.000000)">
            <g id="bbb_logo">
                <g id="Page-1">
                    <g id="bbb_logo">
                        <g id="background" transform="translate(1138.122466, 761.678802) rotate(58.000000) translate(-1138.122466, -761.678802) translate(588.122466, 205.678802)" fill="#A5A5A5">
                            <path d="M528.112875,0.719015946 C843.592699,0.719015946 1099.33963,256.465945 1099.33963,571.945769 C1099.33963,821.202224 939.692881,1033.17118 717.073818,1111.17821 L717.073816,1078.91133 C922.609534,1002.27787 1068.99363,804.222115 1068.99363,571.976525 C1068.99363,273.273317 826.846839,31.1265237 528.143631,31.1265237 C323.224473,31.1265237 153.116874,128.797378 61.3543225,296.801871 C36.2656272,342.735789 25.6418209,388.304587 25.6418209,388.304587 C25.6418209,388.304587 10.9297142,381.836708 0.914887782,379.504783 C71.3133863,147.530051 253.508364,0.719015946 528.112875,0.719015946 Z M336.979966,1110.41219 L336.979969,1078.07294 C215.841317,1032.29258 121.441869,952.140424 59.7631782,839.841838 C59.7631782,839.841838 37.3647192,844.013628 28.5370983,849.151438 C95.6323903,969.811322 205.172307,1063.62386 336.979966,1110.41219 Z" id="Oval-13"></path>
                        </g>
                        <g id="magnifying-glass" transform="translate(845.972113, 920.651037) rotate(58.000000) translate(-845.972113, -920.651037) translate(421.972113, 188.651037)">
                            <path d="M16.58066,303.934754 C32.9858634,247.40689 61.6237015,193.45236 102.776686,146.111267 C254.593541,-28.5340471 519.243419,-47.0401693 693.888733,104.776686 C868.534047,256.593541 887.040169,521.243419 735.223314,695.888733 C583.406459,870.534047 318.756581,889.040169 144.111267,737.223314 C102.104056,700.707003 69.1301304,657.662843 45.3868662,610.913434 C70.5020605,571.955057 85.0758742,525.560351 85.0758742,475.761748 C85.0758742,409.192747 59.033356,348.706302 16.58066,303.934754 Z" id="Combined-Shape" fill="#9B9B9B"></path>
                            <circle id="Oval-9" fill="url(#linearGradient-1)" transform="translate(424.029188, 424.029188) rotate(-49.000000) translate(-424.029188, -424.029188) " cx="424.029188" cy="424.029188" r="300.029188"></circle>
                            <circle id="Oval-9" fill="url(#linearGradient-1)" transform="translate(424.029188, 424.029188) rotate(-49.000000) translate(-424.029188, -424.029188) " cx="424.029188" cy="424.029188" r="300.029188"></circle>
                            <circle id="Oval-9" fill="url(#linearGradient-2)" transform="translate(424.000000, 424.000000) rotate(-49.000000) translate(-424.000000, -424.000000) " cx="424" cy="424" r="260"></circle>
                            <g id="Group-5" transform="translate(429.360512, 1112.857398) rotate(-58.000000) translate(-429.360512, -1112.857398) translate(158.860512, 884.857398)">
                                <g id="Group-6" transform="translate(270.510623, 212.084510) rotate(57.000000) translate(-270.510623, -212.084510) translate(196.510623, -61.915490)" fill="#9B9B9B">
                                    <rect id="Rectangle-7" transform="translate(74.000000, 68.437669) rotate(91.000000) translate(-74.000000, -68.437669) " x="6.9999997" y="32.9375893" width="134" height="71.0001594"></rect>
                                    <path d="M6.82121026e-13,286.830549 L6.82470721e-13,138.814747 L6.82499482e-13,154.640733 C6.82290467e-13,113.77171 33.1219425,80.6408217 74,80.6408217 L74,80.6408217 C114.869071,80.6408217 148,113.77349 148,154.640985 L148,97.2738046 L148,245.277373 L148,473.693758 C148,514.560061 114.878057,547.688745 74,547.688745 L74,547.688745 C33.1309285,547.688745 6.82121026e-13,514.556918 6.82121026e-13,473.681016 L6.82121026e-13,286.830549 L6.82121026e-13,286.830549 Z" id="Rectangle-9"></path>
                                </g>
                                <g id="Group-6" transform="translate(253.057093, 260.033496) rotate(53.000000) translate(-253.057093, -260.033496) translate(187.057093, 23.033496)" fill="#878787">
                                    <path d="M109.439012,4.73337519 C104.611865,3.74331771 99.6133475,3.22332101 94.493384,3.22332101 C53.6153266,3.22332101 20.493384,36.3542097 20.493384,77.2232321 L20.493384,61.3972463 L20.493384,209.413048 L20.493384,396.263515 C20.493384,437.139417 53.6243126,470.271245 94.493384,470.271245 C100.296077,470.271245 105.942484,469.603696 111.360048,468.341226 C77.6553502,461.428491 52.3054288,431.598651 52.3054288,395.84348 L52.3054288,208.993013 L52.3054288,60.9772109 L52.3054288,76.8031967 C52.3054288,41.7354968 76.6915014,12.3650077 109.439012,4.73337519 L109.439012,4.73337519 Z" id="Rectangle-9" transform="translate(65.926716, 236.747283) rotate(185.000000) translate(-65.926716, -236.747283) "></path>
                                </g>
                                <polygon id="Rectangle-9" fill="#878787" transform="translate(470.372371, 106.674235) rotate(58.000000) translate(-470.372371, -106.674235) " points="452.872371 63.9843925 487.872371 63.9843925 487.872371 149.364077 452.872371 139.916627"></polygon>
                            </g>
                        </g>
                        <path d="M891.206723,286.103362 C891.206723,208.726412 828.480312,146 751.103362,146 C673.726412,146 611,208.726412 611,286.103362 C611,363.480312 673.726412,426.206723 751.103362,426.206723 C828.480312,426.206723 891.206723,363.480312 891.206723,286.103362 Z" id="Oval-20" fill="url(#radialGradient-3)"></path>
                        <g id="a" transform="translate(915.000000, 258.000000)" font-size="700" font-family="Helvetica-Bold, Helvetica" fill="#FFFFFF" font-weight="bold">
                            <text>
                                <tspan x="0" y="679">a</tspan>
                            </text>
                        </g>
                        <path d="M1088.43685,863.804373 C1088.43685,745.403341 1021.26545,563.21252 1021.26545,563.21252 C1021.26545,563.21252 1161.06294,558.859749 1246.42335,628.654033 C1330.77443,697.623049 1360.8317,811.989096 1356.07887,881.117152 C1351.32603,950.24521 1308.65926,1048.65206 1246.42335,1097.18651 C1150.2534,1172.1843 1031.10892,1161.06884 1031.10892,1161.06884 C1031.10892,1161.06884 1088.43685,982.2054 1088.43685,863.804373 L1088.43685,863.804373 Z" id="Rectangle-10" fill-opacity="0.09" fill="#000000" transform="translate(1188.912494, 862.404465) rotate(52.000000) translate(-1188.912494, -862.404465) "></path>
                    </g>
                </g>
            </g>
        </g>
    </g>
</svg>